<svg width="41" height="54" viewBox="0 0 41 54" fill="none" xmlns="http://www.w3.org/2000/svg">
<path d="M40.928 39.4349C40.6815 40.6626 40.0125 41.7641 39.0381 42.5465C38.0638 43.3289 36.8462 43.7423 35.5987 43.7143H5.40142C4.15389 43.7423 2.93631 43.3289 1.96196 42.5465C0.987601 41.7641 0.318587 40.6626 0.0720977 39.4349C-0.110391 38.3541 0.0556736 37.243 0.546108 36.2635C1.03654 35.284 1.82574 34.4872 2.79876 33.9891C3.57069 33.5502 4.22184 32.9256 4.69371 32.1716C5.16557 31.4175 5.44336 30.5576 5.50211 29.6691L6.41501 20.5069C6.72135 17.4442 8.01069 14.5642 10.0889 12.3005C12.1672 10.0368 14.9219 8.51183 17.9384 7.95523V2.57143C17.9384 1.88944 18.2083 1.23539 18.6888 0.753154C19.1693 0.270917 19.821 0 20.5006 0C21.1801 0 21.8318 0.270917 22.3123 0.753154C22.7928 1.23539 23.0627 1.88944 23.0627 2.57143V8.0028C26.1376 8.64778 28.9239 10.2689 31.0096 12.6263C33.0952 14.9838 34.3694 17.9523 34.6438 21.0929L35.4982 29.6699C35.557 30.5584 35.8348 31.4183 36.3066 32.1723C36.7785 32.9264 37.4297 33.551 38.2016 33.9899C39.1744 34.488 39.9635 35.2847 40.4538 36.264C40.9442 37.2434 41.1103 38.3542 40.928 39.4349ZM20.5006 54C21.8596 54 23.163 53.4582 24.124 52.4937C25.085 51.5292 25.6249 50.2211 25.6249 48.8571H15.3762C15.3762 50.2211 15.9161 51.5292 16.8771 52.4937C17.8381 53.4582 19.1415 54 20.5006 54Z" fill="black"/>
</svg>
