<svg width="24" height="24" viewBox="0 0 24 24" fill="none" xmlns="http://www.w3.org/2000/svg">
<path d="M0.925776 21.8533L0.925783 21.8533C1.12759 22.8018 1.99271 23.5 2.98664 23.5H21.0097C22.0033 23.5 22.8679 22.8021 23.0706 21.8532C23.0706 21.8531 23.0706 21.8531 23.0707 21.853L23.485 19.9038C23.5404 19.5554 23.4412 19.2024 23.2088 18.9315L23.2087 18.9314C22.9747 18.6585 22.6301 18.4999 22.263 18.4999H15.8821C15.5566 18.4999 15.2303 18.5757 14.9381 18.7198L0.925776 21.8533ZM0.925776 21.8533L0.518199 19.9383C0.455132 19.5498 0.55835 19.1989 0.787204 18.9319C1.0225 18.6582 1.3666 18.4999 1.7334 18.4999H8.11425C8.44023 18.4999 8.76744 18.5759 9.05765 18.7191L10.0613 19.2153L10.0629 19.2161C10.2498 19.3076 10.4596 19.3571 10.6711 19.3571H13.3252C13.5359 19.3571 13.7461 19.3076 13.933 19.2167L13.9359 19.2153L14.9378 18.72L0.925776 21.8533ZM16.428 10.5417L16.4281 10.5416C16.5582 10.4813 16.6371 10.3546 16.6371 10.2195V9.12129L13.5418 10.3564L13.5412 10.3567C13.0542 10.5503 12.5434 10.6492 12.0216 10.6492C11.4993 10.6492 10.9874 10.5504 10.5014 10.3564C10.5014 10.3564 10.5014 10.3564 10.5014 10.3564L7.42354 9.12816V10.2195C7.42354 10.3538 7.50269 10.4812 7.63286 10.5418L16.428 10.5417ZM16.428 10.5417C15.4885 10.978 13.9602 11.4998 12.0303 11.4998C10.9629 11.4998 9.33447 11.3329 7.63299 10.5419L16.428 10.5417ZM18.4977 2.98145L18.498 2.98157C19.0102 3.18552 19.3381 3.66962 19.3381 4.21679L19.3381 4.21638C19.3381 4.21638 19.3377 4.22515 19.3322 4.25451C19.3301 4.26597 19.3284 4.27407 19.3264 4.28421C19.3248 4.29226 19.3229 4.30159 19.3203 4.31492C19.3155 4.33919 19.3097 4.37035 19.3049 4.40457L19.2999 4.43951V4.47479V8.78716C19.2999 8.97799 19.1409 9.14432 18.9314 9.14432C18.7219 9.14432 18.5629 8.97799 18.5629 8.78716V6.16682V5.42895L17.8776 5.70244L12.5209 7.84012C12.3583 7.90492 12.1901 7.93658 12.0216 7.93658C11.8527 7.93658 11.6841 7.90475 11.5245 7.84063L11.5234 7.84018L5.54467 5.45471L5.54464 5.4547C5.03178 5.2501 4.70428 4.76529 4.70428 4.21765C4.70428 3.6709 5.03183 3.18721 5.54469 2.98229C5.54474 2.98227 5.54479 2.98225 5.54484 2.98223L11.5226 0.596821L11.523 0.596635C11.8449 0.467835 12.1974 0.4677 12.5205 0.59676L12.5207 0.596835L18.4977 2.98145ZM21.9193 9.62555V15.7864H15.8812C15.1353 15.7864 14.3873 15.9599 13.7171 16.2906L13.7168 16.2908L13.0034 16.6436H10.992L10.2759 16.2899L10.2755 16.2897C9.60639 15.9599 8.8594 15.7864 8.11339 15.7864H2.07533V8.57201C2.07533 7.87652 2.42928 7.25743 2.9753 6.8813C3.38809 7.3499 3.91262 7.72764 4.52331 7.97171L4.52383 7.97192L4.68655 8.03674V10.2203C4.68655 11.4086 5.38909 12.4966 6.47122 13L6.47136 13.0001C8.63271 14.0046 10.6883 14.2141 12.0303 14.2141C14.4613 14.2141 16.3931 13.5555 17.5866 13.0009C18.1336 12.7471 18.5804 12.3441 18.8904 11.8571C18.9041 11.8575 18.9178 11.8578 18.9314 11.8578C20.3456 11.8578 21.5487 10.9158 21.9193 9.62555Z" fill="white" stroke="black"/>
</svg>
