<svg width="54" height="54" viewBox="0 0 54 54" fill="none" xmlns="http://www.w3.org/2000/svg">
    <path
        d="M2 36C2 34.9391 2.42143 33.9217 3.17157 33.1716C3.92172 32.4214 4.93913 32 6 32H18C19.0609 32 20.0783 32.4214 20.8284 33.1716C21.5786 33.9217 22 34.9391 22 36V48C22 49.0609 21.5786 50.0783 20.8284 50.8284C20.0783 51.5786 19.0609 52 18 52H6C4.93913 52 3.92172 51.5786 3.17157 50.8284C2.42143 50.0783 2 49.0609 2 48V36Z"
        fill="black" />
    <path
        d="M0 10C0 8.93913 0.421427 7.92172 1.17157 7.17157C1.92172 6.42143 2.93913 6 4 6H18C19.0609 6 20.0783 6.42143 20.8284 7.17157C21.5786 7.92172 22 8.93913 22 10V24C22 25.0609 21.5786 26.0783 20.8284 26.8284C20.0783 27.5786 19.0609 28 18 28H4C2.93913 28 1.92172 27.5786 1.17157 26.8284C0.421427 26.0783 0 25.0609 0 24V10ZM26 36C26 34.9391 26.4214 33.9217 27.1716 33.1716C27.9217 32.4214 28.9391 32 30 32H44C45.0609 32 46.0783 32.4214 46.8284 33.1716C47.5786 33.9217 48 34.9391 48 36V50C48 51.0609 47.5786 52.0783 46.8284 52.8284C46.0783 53.5786 45.0609 54 44 54H30C28.9391 54 27.9217 53.5786 27.1716 52.8284C26.4214 52.0783 26 51.0609 26 50V36Z"
        fill="black" />
    <path
        d="M26 4C26 2.93913 26.4214 1.92172 27.1716 1.17157C27.9217 0.421427 28.9391 0 30 0H50C51.0609 0 52.0783 0.421427 52.8284 1.17157C53.5786 1.92172 54 2.93913 54 4V24C54 25.0609 53.5786 26.0783 52.8284 26.8284C52.0783 27.5786 51.0609 28 50 28H30C28.9391 28 27.9217 27.5786 27.1716 26.8284C26.4214 26.0783 26 25.0609 26 24V4Z"
        fill="black" />
</svg>