<svg width="40" height="54" viewBox="0 0 40 54" fill="none" xmlns="http://www.w3.org/2000/svg">
<path d="M10.9091 9.00661H7.27273C7.41279 8.01109 7.91099 7.099 8.67585 6.43783C9.44071 5.77665 10.4209 5.41077 11.4364 5.40738H11.8545C12.4511 3.76405 13.564 2.35314 15.0299 1.38153C16.4958 0.409927 18.2376 -0.0712569 20 0.00853826C21.7533 -0.0595191 23.4828 0.427165 24.9377 1.39797C26.3926 2.36877 27.4971 3.77317 28.0909 5.40738H28.5091C29.534 5.39769 30.5273 5.75766 31.3036 6.42003C32.0799 7.0824 32.586 8.00186 32.7273 9.00661H29.0909V14.2795C28.9858 14.3577 28.8587 14.4017 28.7273 14.4055H11.2727C11.1518 14.4168 11.03 14.4168 10.9091 14.4055V9.00661Z" fill="black"/>
<path d="M34.1455 9.00661H32.7273C32.7273 9.20457 32.7273 9.38453 32.7273 9.58249V14.4055C32.6755 15.4065 32.2259 16.3466 31.4766 17.0209C30.7272 17.6951 29.739 18.0488 28.7273 18.0047H11.2727C10.261 18.0488 9.27277 17.6951 8.52345 17.0209C7.77413 16.3466 7.32454 15.4065 7.27273 14.4055V9.58249C7.27273 9.38453 7.27273 9.20457 7.27273 9.00661H5.85455C4.35592 8.95798 2.89879 9.49859 1.80172 10.5103C0.704642 11.522 0.0568651 12.9224 0 14.4055V48.5981C0.0568651 50.0812 0.704642 51.4816 1.80172 52.4933C2.89879 53.505 4.35592 54.0456 5.85455 53.997H34.1455C35.6441 54.0456 37.1012 53.505 38.1983 52.4933C39.2954 51.4816 39.9431 50.0812 40 48.5981V14.4055C39.9431 12.9224 39.2954 11.522 38.1983 10.5103C37.1012 9.49859 35.6441 8.95798 34.1455 9.00661ZM12.7273 41.7776V43.0193C12.7275 43.0641 12.7109 43.1073 12.6806 43.1406C12.6503 43.1739 12.6086 43.1948 12.5636 43.1993H10.9091C10.7455 43.1993 10.7455 43.0553 10.7455 41.7596C9.69193 41.6205 8.73635 41.0757 8.08618 40.2435C7.436 39.4112 7.1437 38.3588 7.27273 37.3145C7.27252 37.265 7.29108 37.2172 7.32474 37.1806C7.3584 37.1439 7.40471 37.1211 7.45455 37.1166L10.2182 36.9546C10.3455 36.9546 10.4182 36.9546 10.4545 37.2066C10.6 37.9444 10.9636 38.4123 11.4545 38.4123C11.5197 38.4148 11.5847 38.404 11.6454 38.3805C11.7061 38.357 11.7613 38.3213 11.8074 38.2756C11.8535 38.23 11.8895 38.1754 11.9133 38.1153C11.9371 38.0552 11.948 37.9909 11.9455 37.9264C11.9455 37.3685 11.4182 36.9006 9.69091 35.6589C9.06887 35.2538 8.55644 34.7041 8.19832 34.0579C7.8402 33.4118 7.64727 32.6886 7.63636 31.9517C7.63221 31.0601 7.9422 30.1949 8.513 29.5052C9.08379 28.8154 9.87967 28.3441 10.7636 28.1725V27.0028C10.7636 26.8948 10.7636 26.8048 10.9091 26.8048H12.5091C12.6727 26.8048 12.6727 26.9488 12.6727 28.2085C13.5982 28.3828 14.4312 28.8763 15.0238 29.6012C15.6163 30.3261 15.93 31.2354 15.9091 32.1677C15.9091 32.2297 15.8842 32.2892 15.8399 32.3331C15.7955 32.377 15.7354 32.4016 15.6727 32.4016L12.7273 32.5456C12.5818 32.5456 12.1818 31.7177 12.0182 31.7177C11.9767 31.7174 11.9357 31.7259 11.8978 31.7425C11.8599 31.7592 11.826 31.7837 11.7985 31.8144C11.7709 31.8451 11.7503 31.8812 11.738 31.9204C11.7258 31.9596 11.7221 32.001 11.7273 32.0417C11.7273 32.5636 12.4545 33.1035 13.9091 34.2012C14.5239 34.5895 15.0339 35.1201 15.395 35.7472C15.7561 36.3743 15.9575 37.079 15.9818 37.8004C16.038 38.7457 15.7353 39.6775 15.1332 40.4133C14.5311 41.1491 13.6731 41.6356 12.7273 41.7776ZM30.9091 41.3997H21.8182C21.336 41.3997 20.8735 41.2101 20.5325 40.8726C20.1916 40.5351 20 40.0774 20 39.6001C20 39.1228 20.1916 38.665 20.5325 38.3275C20.8735 37.99 21.336 37.8004 21.8182 37.8004H30.9091C31.3913 37.8004 31.8538 37.99 32.1947 38.3275C32.5357 38.665 32.7273 39.1228 32.7273 39.6001C32.7273 40.0774 32.5357 40.5351 32.1947 40.8726C31.8538 41.2101 31.3913 41.3997 30.9091 41.3997ZM30.9091 34.2012H21.8182C21.336 34.2012 20.8735 34.0116 20.5325 33.6741C20.1916 33.3366 20 32.8789 20 32.4016C20 31.9243 20.1916 31.4666 20.5325 31.1291C20.8735 30.7916 21.336 30.602 21.8182 30.602H30.9091C31.3913 30.602 31.8538 30.7916 32.1947 31.1291C32.5357 31.4666 32.7273 31.9243 32.7273 32.4016C32.7273 32.8789 32.5357 33.3366 32.1947 33.6741C31.8538 34.0116 31.3913 34.2012 30.9091 34.2012ZM30.9091 27.0028H16.3636C15.8814 27.0028 15.419 26.8132 15.078 26.4757C14.737 26.1382 14.5455 25.6804 14.5455 25.2031C14.5455 24.7259 14.737 24.2681 15.078 23.9306C15.419 23.5931 15.8814 23.4035 16.3636 23.4035H30.9091C31.3913 23.4035 31.8538 23.5931 32.1947 23.9306C32.5357 24.2681 32.7273 24.7259 32.7273 25.2031C32.7273 25.6804 32.5357 26.1382 32.1947 26.4757C31.8538 26.8132 31.3913 27.0028 30.9091 27.0028Z" fill="black"/>
</svg>
