<svg width="223" height="210" viewBox="0 0 223 210" fill="none" xmlns="http://www.w3.org/2000/svg">
<g clip-path="url(#clip0_5_11)">
<path d="M133.216 210C131.498 209.205 129.633 208.625 128.089 207.574C124.26 204.965 122.563 199.923 123.732 195.4C124.976 190.587 128.786 187.25 133.472 186.524C139.384 185.608 145.703 189.645 146.761 196.324C147.779 202.764 143.559 208.529 137.581 209.731C137.429 209.762 137.3 209.905 137.16 209.997H133.219L133.216 210Z" fill="url(#paint0_linear_5_11)"/>
<path d="M193.704 118.075C193.583 124.242 193.025 132.754 190.262 140.954C185.187 156.024 175.381 167.101 161.681 174.834C155.372 178.396 148.611 180.795 141.454 181.894C130.48 183.581 119.79 182.712 110.045 176.928C99.8235 170.861 92.9013 162.146 90.5071 150.242C89.4626 145.049 89.4968 139.8 90.023 134.525C91.0122 124.617 93.6485 115.028 95.4929 105.286C96.6874 98.9872 97.5477 92.6563 97.1767 86.2356C96.911 81.6287 95.6744 77.2462 93.8564 72.9851C91.157 66.6568 88.8022 60.2071 87.4077 53.4247C85.5397 44.3243 86.1685 35.5091 90.1466 27.0635C92.1673 22.776 93.6512 18.4304 93.1855 13.5911C93.075 12.448 94.2984 10.8824 95.2771 10.6818C96.5926 10.4125 97.3188 11.2335 97.8739 12.2394C99.9735 16.057 101.055 19.9881 99.0974 24.2307C97.8371 26.9658 96.6768 29.7511 95.3297 32.4413C93.5485 36.0002 93.5459 39.6303 94.9272 43.2155C95.3534 44.319 96.5084 45.3276 97.574 45.9638C100.713 47.8409 103.981 49.5015 107.188 51.2625C110.566 53.1158 113.844 55.1091 116.578 57.8864C120.872 62.2505 122.203 67.3406 120.174 73.1619C117.02 82.2121 114.073 91.3231 111.832 100.65C109.84 108.948 108.232 117.301 107.659 125.837C107.159 133.266 107.206 140.653 109.285 147.876C111.963 157.188 117.575 163.645 127.268 165.863C133.906 167.381 140.391 166.286 146.682 164.023C156.359 160.543 163.431 153.959 168.485 145.086C172.256 138.464 174.481 131.339 175.294 123.767C175.826 118.814 175.878 113.883 174.463 109.041C174.279 108.415 174.068 107.784 173.779 107.201C172.082 103.771 171.537 103.449 167.557 104.193C163.431 104.964 160.027 107.367 156.782 109.915C152.444 113.32 148.584 117.209 145.893 122.075C144.893 123.883 144.183 125.908 143.672 127.92C142.828 131.254 144.235 134.18 147.227 135.938C150.016 137.577 153.112 138.042 156.259 138.277C157.393 138.361 158.537 138.277 159.674 138.356C161.105 138.454 161.618 139.124 161.337 140.539C160.879 142.847 159.274 144.378 157.543 145.727C153.244 149.077 148.237 150.057 142.967 149.529C137.602 148.993 132.567 147.272 128.128 144.135C122.706 140.305 120.724 134.943 121.59 128.432C122.548 121.251 126.007 115.2 130.278 109.585C137.302 100.35 145.945 93.0048 156.346 87.8197C161.179 85.4093 166.257 83.7144 171.685 83.4794C180.956 83.0781 187.705 87.8804 191.054 97.0705C193.246 103.082 193.783 109.336 193.706 118.07L193.704 118.075Z" fill="url(#paint1_linear_5_11)"/>
<path d="M9.44273 123.102C8.75603 125.311 8.05355 127.226 7.57207 129.195C5.29624 138.501 7.56418 146.749 13.4892 154.104C15.9571 157.167 18.9276 159.656 22.1374 161.906C29.7858 167.262 38.2708 166.375 45.3772 161.195C50.5261 157.444 54.1148 152.412 56.9353 146.794C60.3503 139.993 62.3736 132.749 63.6102 125.253C64.6021 119.237 65.0546 113.18 65.1783 107.087C65.2651 102.847 68.467 98.615 72.5425 97.1392C77.1573 95.468 81.9536 96.6164 85.0898 100.054C87.7682 102.99 88.5259 106.435 87.9576 110.255C87.2078 115.303 86.5685 120.375 85.6081 125.383C83.2902 137.453 79.691 149.085 73.0397 159.561C68.5986 166.56 63.0419 172.44 55.5172 176.115C45.4456 181.036 35.1899 180.875 25.0289 176.471C14.097 171.735 5.88822 164.086 1.79172 152.673C-2.17849 141.611 0.584085 131.957 8.71657 123.704C8.86654 123.553 9.04544 123.429 9.44273 123.102Z" fill="url(#paint2_linear_5_11)"/>
<path d="M115.744 39.1656C116.917 36.3566 117.962 33.83 119.027 31.314C122.124 24.0036 125.173 16.6748 128.378 9.4119C129.138 7.68792 130.241 6.02731 131.517 4.64127C133.39 2.60312 135.29 3.26578 135.916 5.96395C136.534 8.62779 135.84 11.186 135.229 13.7284C133.027 22.9265 130.775 32.1087 128.504 41.4572C130.562 40.4857 131.948 38.9544 133.19 37.2859C135.905 33.6399 137.505 29.4211 139.255 25.2761C139.865 23.8294 140.478 22.38 141.209 20.9939C142.159 19.1987 144.24 18.3565 146.108 18.8739C147.65 19.3016 149.213 21.2263 148.96 22.9951C148.582 25.6537 148.074 28.3413 147.206 30.8731C145.253 36.5731 142.428 41.8427 138.699 46.5974C138.192 47.2443 137.61 47.8304 136.884 48.6435C139.228 48.5432 140.87 47.4977 142.359 46.1486C145.619 43.1944 147.703 39.3689 150.013 35.7071C151.06 34.0491 152.139 32.3938 153.375 30.8758C154.401 29.6138 155.401 29.8488 156.043 31.3483C157.125 33.8828 157.006 36.4411 156.201 39.0363C154.359 44.9659 151.11 50.1352 147.611 55.1672C142.901 61.9363 137.208 67.8237 131.143 73.3599C127.281 76.8845 123.582 80.5304 120.995 85.1532C120.89 85.3406 120.735 85.499 120.603 85.6706C120.474 85.6548 120.348 85.6416 120.219 85.6258C120.385 83.8569 120.359 82.0458 120.756 80.3324C121.474 77.2382 122.506 74.2206 123.297 71.1423C124.292 67.2825 124.671 63.3804 123.363 59.5048C122.058 55.6344 119.167 53.1501 115.87 51.0354C113.263 49.3643 110.579 47.796 108.067 45.9929C103.604 42.7905 101.955 38.3762 102.639 32.9192C103.307 27.5783 105.449 22.7654 107.659 17.9842C109.945 13.0394 112.416 8.17634 114.831 3.29219C115.715 1.50221 117.099 0.340574 119.138 0.0475251C120.635 -0.166322 121.606 0.432977 121.932 1.8903C122.5 4.41686 121.945 6.88534 121.272 9.26669C120.098 13.4116 118.764 17.5169 117.357 21.5906C115.552 26.8127 115.078 32.172 115.394 37.6397C115.418 38.0489 115.573 38.4475 115.741 39.1709L115.744 39.1656Z" fill="url(#paint3_linear_5_11)"/>
<path d="M223 103.774C222.466 124.44 217.47 142.026 206.885 157.885C204.396 161.613 201.502 165.018 197.821 167.65C195.556 169.269 193.138 170.544 190.228 170.428C190.054 170.42 189.875 170.428 189.702 170.412C187.747 170.211 187.565 169.781 188.397 167.986C191.078 162.212 193.893 156.491 196.311 150.606C200.273 140.965 203.004 130.94 204.646 120.636C205.504 115.247 205.806 109.804 205.43 104.368C205.004 98.1926 203.683 92.1996 199.865 87.1517C198.358 85.1585 196.461 83.3685 194.464 81.8557C190.486 78.8434 188.718 73.917 190.225 69.0645C191.712 64.2754 196.071 61.0783 200.978 60.9859C205.372 60.904 208.466 62.9395 210.971 66.3954C216.633 74.2074 220.306 82.8458 221.769 92.3764C222.432 96.693 222.716 101.068 223 103.776V103.774Z" fill="url(#paint4_linear_5_11)"/>
<path d="M39.018 96.7986C36.6685 99.0083 34.2112 101.11 31.9985 103.446C28.0598 107.607 25.1526 112.404 24.037 118.117C23.0714 123.065 23.4897 127.854 26.4996 132.067C27.3258 133.224 28.5939 134.182 29.8516 134.879C31.3697 135.721 33.1745 135.191 33.9138 133.638C34.6663 132.06 35.2478 130.296 35.4267 128.564C35.8345 124.607 35.1688 120.697 34.319 116.832C32.6141 109.078 38.1077 102.245 45.9823 102.443C51.5417 102.583 56.4012 107.208 56.8195 112.481C57.4273 120.137 57.4089 127.735 55.4277 135.206C54.1043 140.188 51.9469 144.735 47.8504 148.103C44.4853 150.87 40.6151 151.945 36.2976 151.776C25.6603 151.359 14.8205 141.651 12.7578 131.043C11.4186 124.158 13.1209 118.009 17.1937 112.46C22.1006 105.775 28.8781 101.503 36.166 97.9285C37.0869 97.4771 38.0314 97.0705 38.9654 96.6428L39.018 96.796V96.7986Z" fill="url(#paint5_linear_5_11)"/>
<path d="M89.4389 77.8454C89.4942 84.2265 84.3374 89.5569 78.2676 89.8393C71.2243 90.1641 65.6755 84.4853 65.6466 78.0831C65.6176 71.6492 70.7981 66.2264 76.8416 65.9572C83.6664 65.6509 89.4994 71.0736 89.4363 77.8454H89.4389Z" fill="url(#paint6_linear_5_11)"/>
</g>
<defs>
<linearGradient id="paint0_linear_5_11" x1="135.14" y1="186.395" x2="135.14" y2="210" gradientUnits="userSpaceOnUse">
<stop stop-color="#FFBB0C"/>
<stop offset="1" stop-color="#787878"/>
</linearGradient>
<linearGradient id="paint1_linear_5_11" x1="140.057" y1="10.63" x2="140.057" y2="182.659" gradientUnits="userSpaceOnUse">
<stop stop-color="#FFBB0C"/>
<stop offset="1" stop-color="#787878"/>
</linearGradient>
<linearGradient id="paint2_linear_5_11" x1="44.067" y1="96.3819" x2="44.067" y2="179.79" gradientUnits="userSpaceOnUse">
<stop stop-color="#FFBB0C"/>
<stop offset="1" stop-color="#787878"/>
</linearGradient>
<linearGradient id="paint3_linear_5_11" x1="129.66" y1="0.00544739" x2="129.66" y2="85.6706" gradientUnits="userSpaceOnUse">
<stop stop-color="#FFBB0C"/>
<stop offset="1" stop-color="#787878"/>
</linearGradient>
<linearGradient id="paint4_linear_5_11" x1="205.464" y1="60.9835" x2="205.464" y2="170.435" gradientUnits="userSpaceOnUse">
<stop stop-color="#FFBB0C"/>
<stop offset="1" stop-color="#787878"/>
</linearGradient>
<linearGradient id="paint5_linear_5_11" x1="34.7392" y1="96.6428" x2="34.7392" y2="151.793" gradientUnits="userSpaceOnUse">
<stop stop-color="#FFBB0C"/>
<stop offset="1" stop-color="#787878"/>
</linearGradient>
<linearGradient id="paint6_linear_5_11" x1="77.5429" y1="65.9448" x2="77.5429" y2="89.8526" gradientUnits="userSpaceOnUse">
<stop stop-color="#FFBB0C"/>
<stop offset="1" stop-color="#787878"/>
</linearGradient>
<clipPath id="clip0_5_11">
<rect width="223" height="210" fill="white"/>
</clipPath>
</defs>
</svg>
