<svg width="31" height="31" viewBox="0 0 31 31" fill="none" xmlns="http://www.w3.org/2000/svg">
<path d="M25.19 30.5H5.32C3.90905 30.5 2.55589 29.9395 1.55819 28.9418C0.560498 27.9441 0 26.591 0 25.18V5.31C0.00264891 3.90078 0.564316 2.55019 1.56172 1.55465C2.55913 0.559123 3.91078 -2.48957e-06 5.32 0H25.19C25.8873 0 26.5778 0.137347 27.222 0.4042C27.8663 0.671052 28.4517 1.06218 28.9447 1.55526C29.4378 2.04834 29.8289 2.63371 30.0958 3.27795C30.3627 3.92219 30.5 4.61268 30.5 5.31V25.18C30.5 26.5892 29.9409 27.9409 28.9453 28.9383C27.9498 29.9357 26.5992 30.4974 25.19 30.5ZM5.32 2.5C4.95015 2.49868 4.58367 2.5704 4.24159 2.71102C3.89951 2.85165 3.58856 3.05842 3.32656 3.31949C3.06457 3.58055 2.85669 3.89077 2.71485 4.23234C2.57301 4.57392 2.5 4.94014 2.5 5.31V25.18C2.5 25.9279 2.79711 26.6452 3.32596 27.174C3.85481 27.7029 4.57209 28 5.32 28H25.19C25.5599 28 25.9261 27.927 26.2677 27.7851C26.6092 27.6433 26.9194 27.4354 27.1805 27.1734C27.4416 26.9114 27.6484 26.6005 27.789 26.2584C27.9296 25.9163 28.0013 25.5499 28 25.18V5.31C28 4.56474 27.7039 3.85001 27.177 3.32303C26.65 2.79605 25.9353 2.5 25.19 2.5H5.32Z" fill="black"/>
<path d="M11.27 16.5C10.9248 16.4988 10.5838 16.4238 10.27 16.28C9.83108 16.0806 9.45948 15.7581 9.20031 15.3516C8.94114 14.9451 8.80555 14.4721 8.81 13.99V1.25C8.81 0.918479 8.9417 0.600537 9.17612 0.366117C9.41054 0.131696 9.72848 0 10.06 0C10.3915 0 10.7095 0.131696 10.9439 0.366117C11.1783 0.600537 11.31 0.918479 11.31 1.25V13.99L13.66 11.91C14.1016 11.5157 14.673 11.2978 15.265 11.2978C15.857 11.2978 16.4284 11.5157 16.87 11.91L19.28 14L19.2 1.25C19.2 0.918479 19.3317 0.600537 19.5661 0.366117C19.8005 0.131696 20.1185 0 20.45 0C20.7815 0 21.0995 0.131696 21.3339 0.366117C21.5683 0.600537 21.7 0.918479 21.7 1.25V13.99C21.7044 14.4721 21.5689 14.9451 21.3097 15.3516C21.0505 15.7581 20.6789 16.0806 20.24 16.28C19.8142 16.4758 19.3404 16.5433 18.8769 16.474C18.4133 16.4047 17.98 16.2018 17.63 15.89L15.25 13.83L12.87 15.9C12.4279 16.2887 11.8587 16.5021 11.27 16.5ZM16.75 24.32H7.75C7.41848 24.32 7.10054 24.1883 6.86612 23.9539C6.6317 23.7195 6.5 23.4015 6.5 23.07C6.5 22.7385 6.6317 22.4205 6.86612 22.1861C7.10054 21.9517 7.41848 21.82 7.75 21.82H16.75C17.0815 21.82 17.3995 21.9517 17.6339 22.1861C17.8683 22.4205 18 22.7385 18 23.07C18 23.4015 17.8683 23.7195 17.6339 23.9539C17.3995 24.1883 17.0815 24.32 16.75 24.32Z" fill="black"/>
</svg>
