<svg width="35" height="30" viewBox="0 0 35 30" fill="none" xmlns="http://www.w3.org/2000/svg">
<path fill-rule="evenodd" clip-rule="evenodd" d="M32.5 10H2.5V26.25C2.5 27.245 2.895 28.1988 3.59875 28.9013C4.30125 29.605 5.255 30 6.25 30C11.48 30 23.52 30 28.75 30C29.745 30 30.6988 29.605 31.4013 28.9013C32.105 28.1988 32.5 27.245 32.5 26.25V10ZM13.75 15H21.25C21.94 15 22.5 14.44 22.5 13.75C22.5 13.06 21.94 12.5 21.25 12.5H13.75C13.06 12.5 12.5 13.06 12.5 13.75C12.5 14.44 13.06 15 13.75 15ZM2.5 7.5H32.5C33.8813 7.5 35 6.38125 35 5V2.5C35 1.11875 33.8813 0 32.5 0C27.3325 0 7.6675 0 2.5 0C1.11875 0 0 1.11875 0 2.5V5C0 6.38125 1.11875 7.5 2.5 7.5Z" fill="black"/>
</svg>
