<svg width="26" height="24" viewBox="0 0 26 24" fill="none" xmlns="http://www.w3.org/2000/svg">
<path d="M0.5 1.90001H0V1.20001C0 0.881747 0.124513 0.576522 0.346146 0.351479C0.56778 0.126435 0.86838 6.95451e-06 1.18182 6.95451e-06H12.7164C13.3763 -0.00131004 14.0236 0.18445 14.5852 0.536379C15.1179 0.870156 15.5536 1.34084 15.8486 1.90001H15.27M0.5 1.90001V2.40001H15.539L15.4469 2.21289L15.4468 2.21262C15.3937 2.10463 15.3346 2.00028 15.27 1.90001M0.5 1.90001H15.27M0.5 1.90001V1.20001C0.5 1.01191 0.57366 0.833032 0.702388 0.702323C0.830862 0.571873 1.00347 0.500007 1.18182 0.500007L12.7164 0.500008L12.7174 0.500006C13.2827 0.498878 13.8376 0.65796 14.3198 0.960074C14.7012 1.1991 15.0254 1.52033 15.27 1.90001M0.702389 23.2977L0.346146 23.6485L0.702387 23.2977C0.57366 23.167 0.5 22.9881 0.5 22.8V5.30001H24.8182C24.9965 5.30001 25.1691 5.37187 25.2976 5.50232C25.4263 5.63303 25.5 5.81191 25.5 6.00001V22.8C25.5 22.9881 25.4263 23.167 25.2976 23.2977C25.1691 23.4281 24.9965 23.5 24.8182 23.5H1.18182C1.00347 23.5 0.830862 23.4281 0.702389 23.2977ZM18.2273 13.2C18.2273 12.1151 17.8029 11.073 17.0451 10.3036C16.287 9.53385 15.2572 9.1 14.1818 9.1H11.8182C10.7428 9.1 9.71299 9.53385 8.95492 10.3036C8.19712 11.073 7.77273 12.1151 7.77273 13.2C7.77273 13.6484 7.94809 14.08 8.26263 14.3994C8.57743 14.719 9.00601 14.9 9.45455 14.9C9.90308 14.9 10.3317 14.719 10.6465 14.3994C10.961 14.08 11.1364 13.6484 11.1364 13.2C11.1364 13.0119 11.21 12.833 11.3388 12.7023C11.4672 12.5719 11.6398 12.5 11.8182 12.5H14.1818C14.3602 12.5 14.5328 12.5719 14.6612 12.7023C14.79 12.833 14.8636 13.0119 14.8636 13.2C14.8636 13.3881 14.79 13.567 14.6612 13.6977C14.5328 13.8281 14.3602 13.9 14.1818 13.9H13C12.5515 13.9 12.1229 14.081 11.8081 14.4006C11.4935 14.72 11.3182 15.1516 11.3182 15.6V18C11.3182 18.4484 11.4935 18.88 11.8081 19.1994C12.1229 19.519 12.5515 19.7 13 19.7C13.4485 19.7 13.8771 19.519 14.1919 19.1994C14.5065 18.88 14.6818 18.4484 14.6818 18V17.2686C15.5725 17.1562 16.4055 16.7459 17.0451 16.0964C17.8029 15.327 18.2273 14.2849 18.2273 13.2Z" fill="white" stroke="black"/>
</svg>
