<svg width="51" height="54" viewBox="0 0 51 54" fill="none" xmlns="http://www.w3.org/2000/svg">
<path d="M43.9282 25.5443C43.4001 25.5443 42.8937 25.3382 42.5204 24.9713C42.147 24.6044 41.9372 24.1067 41.9372 23.5878V18.0626C41.9372 10.2365 34.5787 3.97565 25.5319 3.97565C16.485 3.97565 9.12648 10.3148 9.12648 18.0626V23.5878C9.12648 24.1067 8.91672 24.6044 8.54335 24.9713C8.16998 25.3382 7.66357 25.5443 7.13554 25.5443C6.60751 25.5443 6.10111 25.3382 5.72773 24.9713C5.35436 24.6044 5.1446 24.1067 5.1446 23.5878V18.0626C5.1446 8.10783 14.3029 0 25.5319 0C36.7608 0 45.9191 8.10783 45.9191 18.0626V23.5878C45.9212 23.8453 45.8712 24.1007 45.7719 24.339C45.6726 24.5773 45.526 24.7938 45.3407 24.9759C45.1554 25.158 44.9351 25.3021 44.6926 25.3997C44.4501 25.4973 44.1902 25.5464 43.9282 25.5443Z" fill="black"/>
<path d="M38.5447 43.9513C38.0166 43.9513 37.5102 43.7452 37.1369 43.3783C36.7635 43.0113 36.5537 42.5137 36.5537 41.9948V23.4157C36.5703 22.9077 36.7873 22.426 37.1589 22.0725C37.5305 21.719 38.0275 21.5215 38.5447 21.5217C45.4094 21.5217 51 26.5774 51 32.7757C51 38.9739 45.4094 43.9513 38.5447 43.9513ZM40.5356 25.5757V39.8348C42.2787 39.5512 43.8706 38.6901 45.0469 37.3946C46.2233 36.0991 46.9132 34.4471 47.0022 32.713C46.9168 30.9762 46.2284 29.3206 45.0518 28.0219C43.8751 26.7232 42.2813 25.8599 40.5356 25.5757ZM12.4553 43.9513C5.59057 43.9513 0 38.9113 0 32.713C0 26.5148 5.59057 21.5217 12.4553 21.5217C12.9834 21.5217 13.4898 21.7279 13.8632 22.0948C14.2365 22.4617 14.4463 22.9594 14.4463 23.4783V41.9948C14.4463 42.5137 14.2365 43.0113 13.8632 43.3783C13.4898 43.7452 12.9834 43.9513 12.4553 43.9513ZM10.4644 25.5757C8.71875 25.8599 7.12487 26.7232 5.94824 28.0219C4.7716 29.3206 4.08325 30.9762 3.99781 32.713C4.08678 34.4471 4.77673 36.0991 5.95306 37.3946C7.12939 38.6901 8.72131 39.5512 10.4644 39.8348V25.5757Z" fill="black"/>
<path d="M37.8916 50.3217H31.2976C30.7696 50.3217 30.2632 50.1156 29.8898 49.7487C29.5164 49.3818 29.3067 48.8841 29.3067 48.3652C29.3067 47.8463 29.5164 47.3487 29.8898 46.9817C30.2632 46.6148 30.7696 46.4087 31.2976 46.4087H37.8916C38.9224 46.4087 39.9109 46.0063 40.6397 45.2901C41.3685 44.5739 41.778 43.6025 41.778 42.5896V41.7287C41.778 41.2098 41.9877 40.7121 42.3611 40.3452C42.7345 39.9783 43.2409 39.7722 43.7689 39.7722C44.2969 39.7722 44.8033 39.9783 45.1767 40.3452C45.5501 40.7121 45.7598 41.2098 45.7598 41.7287V42.5896C45.7598 44.6403 44.9309 46.607 43.4553 48.057C41.9797 49.5071 39.9784 50.3217 37.8916 50.3217Z" fill="black"/>
<path d="M27.8891 54H23.955C22.5103 54 21.1248 53.436 20.1033 52.4321C19.0817 51.4282 18.5078 50.0667 18.5078 48.647V48.4278C18.512 47.0108 19.0878 45.6533 20.1089 44.6528C21.13 43.6523 22.5131 43.0904 23.955 43.0904H27.8891C29.3296 43.0904 30.7111 43.6528 31.7296 44.6537C32.7482 45.6547 33.3204 47.0123 33.3204 48.4278V48.647C33.3204 50.064 32.7487 51.4232 31.7306 52.4266C30.7125 53.43 29.3311 53.9959 27.8891 54ZM23.9869 47.0035C23.601 47.0035 23.2307 47.153 22.9563 47.4197C22.682 47.6864 22.5257 48.0486 22.5216 48.4278V48.647C22.5216 49.0289 22.6759 49.3951 22.9507 49.6652C23.2255 49.9352 23.5983 50.087 23.9869 50.087H27.8891C28.275 50.0828 28.6436 49.9293 28.915 49.6597C29.1864 49.3901 29.3386 49.0262 29.3385 48.647V48.4278C29.3385 48.0501 29.1858 47.6878 28.914 47.4207C28.6422 47.1535 28.2735 47.0035 27.8891 47.0035H23.9869Z" fill="black"/>
</svg>
